<svg width="75" height="66" viewBox="0 0 75 66" fill="none" xmlns="http://www.w3.org/2000/svg">
<path d="M3.89935 1.45801H71.1007C72.0908 1.45801 73.0404 1.832 73.7406 2.49771C74.4407 3.16342 74.8341 4.06631 74.8341 5.00777V61.8039C74.8341 62.7453 74.4407 63.6482 73.7406 64.3139C73.0404 64.9797 72.0908 65.3536 71.1007 65.3536H3.89935C2.90918 65.3536 1.95958 64.9797 1.25943 64.3139C0.559279 63.6482 0.165939 62.7453 0.165939 61.8039V5.00777C0.165939 4.06631 0.559279 3.16342 1.25943 2.49771C1.95958 1.832 2.90918 1.45801 3.89935 1.45801ZM37.5 44.0551V51.1546H59.9004V44.0551H37.5ZM24.112 33.4058L13.5539 43.4445L18.833 48.4674L34.6738 33.4058L18.833 18.3442L13.5539 23.3671L24.112 33.4058Z" fill="black"/>
</svg>
