<svg width="75" height="65" viewBox="0 0 75 65" fill="none" xmlns="http://www.w3.org/2000/svg">
<path d="M3.89933 0.552124H71.1007C72.0908 0.552124 73.0404 0.926115 73.7406 1.59182C74.4407 2.25753 74.8341 3.16043 74.8341 4.10188V60.898C74.8341 61.8394 74.4407 62.7423 73.7406 63.408C73.0404 64.0737 72.0908 64.4477 71.1007 64.4477H3.89933C2.90917 64.4477 1.95956 64.0737 1.25941 63.408C0.559264 62.7423 0.165924 61.8394 0.165924 60.898V4.10188C0.165924 3.16043 0.559264 2.25753 1.25941 1.59182C1.95956 0.926115 2.90917 0.552124 3.89933 0.552124V0.552124ZM37.5 43.1492V50.2487H59.9004V43.1492H37.5ZM24.112 32.4999L13.5539 42.5386L18.833 47.5615L34.6738 32.4999L18.833 17.4383L13.5539 22.4612L24.112 32.4999Z" fill="#DDDDDD"/>
</svg>
