<svg width="512" height="512" viewBox="0 0 512 512" fill="none" xmlns="http://www.w3.org/2000/svg">
<path fill-rule="evenodd" clip-rule="evenodd" d="M469.046 56.334C465.544 52.817 460.697 50.646 455.362 50.646H84.313C78.961 50.646 74.128 52.817 70.612 56.334C67.096 59.851 64.927 64.712 64.927 70.032V337.213C64.927 342.533 67.113 347.395 70.612 350.911C74.129 354.428 78.993 356.598 84.313 356.598H455.362C460.682 356.598 465.544 354.428 469.046 350.911C472.563 347.394 474.745 342.533 474.745 337.213V70.032C474.745 64.712 472.563 59.851 469.046 56.334ZM146.733 439.461V450.285H392.924V439.461H146.733ZM458.511 70.43V288.534C458.511 290.582 456.829 292.295 454.766 292.295H84.022C81.959 292.295 80.26 290.582 80.26 288.534V70.43C80.26 68.351 81.958 66.668 84.022 66.668H454.766C456.829 66.668 458.511 68.351 458.511 70.43ZM225.223 364.119L207.384 431.939H332.29L314.449 364.119H225.223ZM273.366 332.718C272.45 331.83 271.212 331.28 269.836 331.28C268.46 331.28 267.222 331.83 266.337 332.718C265.418 333.635 264.866 334.858 264.866 336.235C264.866 337.61 265.418 338.864 266.305 339.751C267.221 340.638 268.459 341.189 269.835 341.189C271.211 341.189 272.449 340.638 273.338 339.782C274.254 338.865 274.805 337.611 274.805 336.236C274.806 334.857 274.255 333.635 273.366 332.718ZM269.836 323.759C273.262 323.759 276.381 325.165 278.642 327.428C280.919 329.692 282.313 332.809 282.313 336.235C282.313 339.659 280.919 342.778 278.66 345.042C276.382 347.304 273.263 348.71 269.837 348.71C266.398 348.71 263.277 347.304 261.031 345.071C258.754 342.778 257.36 339.659 257.36 336.235C257.36 332.809 258.754 329.692 261.017 327.428C263.276 325.165 266.396 323.759 269.836 323.759ZM304.703 162.862L304.631 162.833L304.554 162.802L304.617 162.833H304.631L304.691 162.862H304.703ZM85.84 471.902C83.762 471.902 82.081 470.221 82.081 468.142C82.081 466.062 83.762 464.38 85.84 464.38H317.615C319.692 464.38 321.373 466.062 321.373 468.142C321.373 470.221 319.692 471.902 317.615 471.902H85.84ZM221.556 485.999C219.492 485.999 217.811 484.317 217.811 482.238C217.811 480.159 219.492 478.476 221.556 478.476H381.961C384.025 478.476 385.706 480.159 385.706 482.238C385.706 484.317 384.025 485.999 381.961 485.999H221.556ZM398.365 485.999C396.301 485.999 394.605 484.317 394.605 482.238C394.605 480.159 396.3 478.476 398.365 478.476H418.425C420.503 478.476 422.188 480.159 422.188 482.238C422.188 484.317 420.503 485.999 418.425 485.999H398.365ZM44.775 170.018C44.775 172.098 43.08 173.78 41.016 173.78C38.935 173.78 37.254 172.098 37.254 170.018V55.508C37.254 47.406 40.571 40.006 45.909 34.654C51.257 29.334 58.659 26.002 66.776 26.002H132.562C134.64 26.002 136.324 27.684 136.324 29.763C136.324 31.842 134.639 33.524 132.562 33.524H66.776C60.722 33.524 55.219 36.001 51.229 39.975C47.252 43.952 44.775 49.485 44.775 55.508V170.018ZM129.842 485.999C127.761 485.999 126.08 484.317 126.08 482.238C126.08 480.159 127.761 478.476 129.842 478.476H193.778C195.841 478.476 197.523 480.159 197.523 482.238C197.523 484.317 195.842 485.999 193.778 485.999H129.842Z" fill="white"/>
<path d="M373.241 262.664H163.759C159.473 262.664 156 259.541 156 255.688V98.7213C156 94.8683 159.473 91.7451 163.759 91.7451H373.241C377.527 91.7451 381 94.8683 381 98.7213V255.688C381 259.541 377.527 262.664 373.241 262.664Z" fill="#E4EAF8"/>
<path d="M373.241 262.664H268.5V109.186H381V255.688C381 259.541 377.527 262.664 373.241 262.664Z" fill="#5B5D6E"/>
<path d="M381 109.186H156V98.7213C156 94.8683 159.473 91.7451 163.759 91.7451H373.241C377.527 91.7451 381 94.8683 381 98.7213V109.186Z" fill="#D5DCED"/>
<path d="M167.638 105.698H163.759C161.616 105.698 159.879 104.136 159.879 102.209V98.721C159.879 96.7947 161.616 95.2327 163.759 95.2327H167.638C169.78 95.2327 171.518 96.7947 171.518 98.721V102.209C171.517 104.136 169.78 105.698 167.638 105.698Z" fill="#E4EAF8"/>
<path d="M342.207 105.698H338.327C336.185 105.698 334.448 104.136 334.448 102.209V98.721C334.448 96.7947 336.185 95.2327 338.327 95.2327H342.207C344.349 95.2327 346.086 96.7947 346.086 98.721V102.209C346.086 104.136 344.349 105.698 342.207 105.698Z" fill="#E4EAF8"/>
<path d="M357.724 105.698H353.844C351.702 105.698 349.965 104.136 349.965 102.209V98.721C349.965 96.7947 351.702 95.2327 353.844 95.2327H357.724C359.866 95.2327 361.603 96.7947 361.603 98.721V102.209C361.603 104.136 359.867 105.698 357.724 105.698Z" fill="#FFFEF5"/>
<path d="M373.241 105.698H369.362C367.22 105.698 365.482 104.136 365.482 102.209V98.721C365.482 96.7947 367.22 95.2327 369.362 95.2327H373.241C375.384 95.2327 377.121 96.7947 377.121 98.721V102.209C377.121 104.136 375.384 105.698 373.241 105.698Z" fill="#D5DCED"/>
<path d="M219.676 135.646L193.419 159.256C192 160.532 191.897 162.57 193.181 163.955L268.5 245.224V133.603H225.162C223.104 133.603 221.131 134.338 219.676 135.646Z" fill="#7ACFFF"/>
<path d="M268.5 133.603L233.586 161.508H268.5V133.603Z" fill="#8CE4FF"/>
<path d="M233.586 161.508L222.174 134.143C221.25 134.49 220.399 134.996 219.677 135.645L193.419 159.255C192.726 159.879 192.358 160.685 192.302 161.508L233.586 161.508Z" fill="#5CA7FF"/>
<path d="M233.586 161.508L268.5 245.224V161.508H233.586Z" fill="#5CA7FF"/>
<path d="M268.5 269.64C266.356 269.64 264.62 268.079 264.62 266.152V88.2572C264.62 86.3309 266.355 84.7689 268.5 84.7689C270.644 84.7689 272.379 86.3309 272.379 88.2572V266.153C272.379 268.079 270.644 269.64 268.5 269.64Z" fill="#AFB9D2"/>
<path d="M295.655 140.579H287.897C285.752 140.579 284.017 139.017 284.017 137.091C284.017 135.164 285.752 133.602 287.897 133.602H295.655C297.799 133.602 299.535 135.164 299.535 137.091C299.535 139.017 297.8 140.579 295.655 140.579Z" fill="#E4EAF8"/>
<path d="M295.655 168.484H287.897C285.752 168.484 284.017 166.922 284.017 164.996C284.017 163.07 285.752 161.508 287.897 161.508H295.655C297.799 161.508 299.535 163.07 299.535 164.996C299.535 166.922 297.8 168.484 295.655 168.484Z" fill="#E4EAF8"/>
<path d="M307.293 154.532H299.535C297.391 154.532 295.655 152.97 295.655 151.044C295.655 149.117 297.39 147.555 299.535 147.555H307.293C309.437 147.555 311.173 149.117 311.173 151.044C311.173 152.97 309.437 154.532 307.293 154.532Z" fill="#D5DCED"/>
<path d="M361.603 140.579H311.172C309.028 140.579 307.293 139.017 307.293 137.091C307.293 135.164 309.028 133.602 311.172 133.602H361.603C363.748 133.602 365.483 135.164 365.483 137.091C365.483 139.017 363.748 140.579 361.603 140.579Z" fill="white"/>
<path d="M361.603 168.484H311.172C309.028 168.484 307.293 166.922 307.293 164.996C307.293 163.07 309.028 161.508 311.172 161.508H361.603C363.748 161.508 365.483 163.07 365.483 164.996C365.483 166.922 363.748 168.484 361.603 168.484Z" fill="#FFFEF5"/>
<path d="M361.603 154.532H322.81C320.666 154.532 318.931 152.97 318.931 151.044C318.931 149.117 320.666 147.555 322.81 147.555H361.603C363.747 147.555 365.483 149.117 365.483 151.044C365.483 152.97 363.748 154.532 361.603 154.532Z" fill="#D5DCED"/>
<path d="M307.293 182.437H299.535C297.391 182.437 295.655 180.875 295.655 178.948C295.655 177.022 297.39 175.46 299.535 175.46H307.293C309.437 175.46 311.173 177.022 311.173 178.948C311.173 180.875 309.437 182.437 307.293 182.437Z" fill="#D5DCED"/>
<path d="M361.603 182.437H322.81C320.666 182.437 318.931 180.875 318.931 178.948C318.931 177.022 320.666 175.46 322.81 175.46H361.603C363.747 175.46 365.483 177.022 365.483 178.948C365.483 180.875 363.748 182.437 361.603 182.437Z" fill="#D5DCED"/>
<path d="M295.655 196.39H287.897C285.752 196.39 284.017 194.828 284.017 192.901C284.017 190.975 285.752 189.413 287.897 189.413H295.655C297.799 189.413 299.535 190.975 299.535 192.901C299.535 194.828 297.8 196.39 295.655 196.39Z" fill="#E4EAF8"/>
<path d="M295.655 224.294H287.897C285.752 224.294 284.017 222.732 284.017 220.806C284.017 218.88 285.752 217.318 287.897 217.318H295.655C297.799 217.318 299.535 218.88 299.535 220.806C299.535 222.732 297.8 224.294 295.655 224.294Z" fill="#E4EAF8"/>
<path d="M307.293 210.342H299.535C297.391 210.342 295.655 208.78 295.655 206.854C295.655 204.927 297.39 203.365 299.535 203.365H307.293C309.437 203.365 311.173 204.927 311.173 206.854C311.173 208.78 309.437 210.342 307.293 210.342Z" fill="#D5DCED"/>
<path d="M361.603 196.39H311.172C309.028 196.39 307.293 194.828 307.293 192.901C307.293 190.975 309.028 189.413 311.172 189.413H361.603C363.748 189.413 365.483 190.975 365.483 192.901C365.483 194.828 363.748 196.39 361.603 196.39Z" fill="white"/>
<path d="M361.603 224.294H311.172C309.028 224.294 307.293 222.732 307.293 220.806C307.293 218.88 309.028 217.318 311.172 217.318H361.603C363.748 217.318 365.483 218.88 365.483 220.806C365.483 222.732 363.748 224.294 361.603 224.294Z" fill="#FFFEF5"/>
<path d="M361.603 210.342H322.81C320.666 210.342 318.931 208.78 318.931 206.854C318.931 204.927 320.666 203.365 322.81 203.365H361.603C363.747 203.365 365.483 204.927 365.483 206.854C365.483 208.78 363.748 210.342 361.603 210.342Z" fill="#D5DCED"/>
<path d="M307.293 238.247H299.535C297.391 238.247 295.655 236.685 295.655 234.759C295.655 232.833 297.39 231.271 299.535 231.271H307.293C309.437 231.271 311.173 232.833 311.173 234.759C311.173 236.685 309.437 238.247 307.293 238.247Z" fill="#D5DCED"/>
<path d="M361.603 238.247H322.81C320.666 238.247 318.931 236.685 318.931 234.759C318.931 232.833 320.666 231.271 322.81 231.271H361.603C363.747 231.271 365.483 232.833 365.483 234.759C365.483 236.685 363.748 238.247 361.603 238.247Z" fill="#D5DCED"/>
</svg>
