<svg width="67" height="92" viewBox="0 0 67 92" fill="none" xmlns="http://www.w3.org/2000/svg">
<path d="M62.1623 1.88281H4.21907C2.44123 1.88281 1 3.25519 1 4.94809V87.7107C1 89.4036 2.44123 90.776 4.21907 90.776H62.1623C63.9401 90.776 65.3814 89.4036 65.3814 87.7107V4.94809C65.3814 3.25519 63.9401 1.88281 62.1623 1.88281Z" stroke="white" stroke-width="2" stroke-linecap="round" stroke-linejoin="round"/>
<path d="M38.0193 8.01343H9.04764C8.15872 8.01343 7.43811 8.6996 7.43811 9.54603V37.1328C7.43811 37.9792 8.15872 38.6654 9.04764 38.6654H38.0193C38.9082 38.6654 39.6288 37.9792 39.6288 37.1328V9.54603C39.6288 8.6996 38.9082 8.01343 38.0193 8.01343Z" stroke="white" stroke-width="2" stroke-linecap="round" stroke-linejoin="round"/>
<path d="M23.5333 29.4698C29.7558 29.4698 34.8001 24.6666 34.8001 18.7416C34.8001 12.8166 29.7558 8.01343 23.5333 8.01343C17.3109 8.01343 12.2666 12.8166 12.2666 18.7416C12.2666 24.6666 17.3109 29.4698 23.5333 29.4698Z" stroke="white" stroke-width="2" stroke-linecap="round" stroke-linejoin="round"/>
<path fill-rule="evenodd" clip-rule="evenodd" d="M9.04764 38.6647H38.0193C38.9082 38.6647 39.6288 37.9785 39.6288 37.1321V32.3121C34.5054 30.3883 29.0406 29.423 23.5335 29.4691C18.0263 29.423 12.5615 30.3883 7.43811 32.3121V37.1321C7.43811 37.9785 8.15872 38.6647 9.04764 38.6647Z" stroke="white" stroke-width="2" stroke-linecap="round" stroke-linejoin="round"/>
<path d="M57.3336 8.01343H47.6764C46.7875 8.01343 46.0669 8.6996 46.0669 9.54603V14.1438C46.0669 14.9903 46.7875 15.6764 47.6764 15.6764H57.3336C58.2226 15.6764 58.9432 14.9903 58.9432 14.1438V9.54603C58.9432 8.6996 58.2226 8.01343 57.3336 8.01343Z" stroke="white" stroke-width="2" stroke-linecap="round" stroke-linejoin="round"/>
<path d="M46.0669 26.405H58.9432" stroke="white" stroke-width="2" stroke-linecap="round" stroke-linejoin="round"/>
<path d="M46.0669 32.5359H58.9432" stroke="white" stroke-width="2" stroke-linecap="round" stroke-linejoin="round"/>
<path d="M46.0669 38.6675H58.9432" stroke="white" stroke-width="2" stroke-linecap="round" stroke-linejoin="round"/>
<path d="M42.8479 57.0589C46.4036 57.0589 49.2861 54.3142 49.2861 50.9285C49.2861 47.5428 46.4036 44.7981 42.8479 44.7981C39.2922 44.7981 36.4098 47.5428 36.4098 50.9285C36.4098 54.3142 39.2922 57.0589 42.8479 57.0589Z" stroke="white" stroke-width="2" stroke-linecap="round" stroke-linejoin="round"/>
<path fill-rule="evenodd" clip-rule="evenodd" d="M55.5519 78.5143H52.505C51.6161 78.5143 50.8955 77.8281 50.8955 76.9817V58.5905C50.8955 57.7441 50.1749 57.0579 49.286 57.0579H33.3628C31.7455 57.0238 30.335 58.0982 30.015 59.6082C29.8556 60.4987 30.1169 61.4108 30.7291 62.101C31.3412 62.7911 32.2419 63.189 33.1906 63.1883H36.4097C37.2986 63.1883 38.0192 63.8745 38.0192 64.7209V76.9817C38.0192 77.8281 37.2986 78.5143 36.4097 78.5143H33.3628C31.7455 78.4802 30.335 79.5546 30.015 81.0646C29.8556 81.9551 30.1169 82.8672 30.7291 83.5573C31.3412 84.2475 32.2419 84.6454 33.1906 84.6447H55.7241C56.6728 84.6454 57.5735 84.2475 58.1857 83.5573C58.7978 82.8672 59.0591 81.9551 58.8997 81.0646C58.5797 79.5546 57.1692 78.4802 55.5519 78.5143Z" stroke="white" stroke-width="2" stroke-linecap="round" stroke-linejoin="round"/>
<path d="M7.43811 47.8621H29.9716" stroke="white" stroke-width="2" stroke-linecap="round" stroke-linejoin="round"/>
<path d="M7.43811 53.9932H25.143" stroke="white" stroke-width="2" stroke-linecap="round" stroke-linejoin="round"/>
<path d="M7.43811 60.124H23.5335" stroke="white" stroke-width="2" stroke-linecap="round" stroke-linejoin="round"/>
<path d="M7.43811 66.2544H26.7525" stroke="white" stroke-width="2" stroke-linecap="round" stroke-linejoin="round"/>
<path d="M7.43811 72.3855H31.5811" stroke="white" stroke-width="2" stroke-linecap="round" stroke-linejoin="round"/>
<path d="M7.43811 78.5164H17.0953" stroke="white" stroke-width="2" stroke-linecap="round" stroke-linejoin="round"/>
<path d="M7.43811 84.6467H25.143" stroke="white" stroke-width="2" stroke-linecap="round" stroke-linejoin="round"/>
</svg>
