<svg id="Layer_1" data-name="Layer 1" xmlns="http://www.w3.org/2000/svg" viewBox="0 0 440 939.83"><defs><style>.cls-1{fill:#fff;}.cls-2{stroke:#fff;stroke-linecap:round;stroke-linejoin:round;stroke-width:8px;}</style></defs><path class="cls-1" d="M346.77-43.91A40.72,40.72,0,0,1,387.5-3.18V815.2a40.72,40.72,0,0,1-40.73,40.72H28.23A40.72,40.72,0,0,1-12.5,815.2V-3.18A40.72,40.72,0,0,1,28.23-43.91H346.77m0-20H28.23A60.79,60.79,0,0,0-32.5-3.18V815.2a60.79,60.79,0,0,0,60.73,60.72H346.77A60.79,60.79,0,0,0,407.5,815.2V-3.18a60.79,60.79,0,0,0-60.73-60.73Z" transform="translate(32.5 63.91)"/><rect class="cls-1" x="136.13" y="14.83" width="168.34" height="36.7" rx="12.73"/><path class="cls-1" d="M259.23-44.08A7.75,7.75,0,0,1,267-36.34v11.23a7.75,7.75,0,0,1-7.74,7.74H116.36a7.74,7.74,0,0,1-7.73-7.74V-36.34a7.74,7.74,0,0,1,7.73-7.74H259.23m0-10H116.36A17.75,17.75,0,0,0,98.63-36.34v11.23A17.75,17.75,0,0,0,116.36-7.37H259.23A17.76,17.76,0,0,0,277-25.11V-36.34a17.76,17.76,0,0,0-17.74-17.74Z" transform="translate(32.5 63.91)"/><line class="cls-2" x1="284.53" y1="905.43" x2="155.47" y2="905.43"/></svg>