<svg id="Layer_1" data-name="Layer 1" xmlns="http://www.w3.org/2000/svg" width="440" height="851.85" viewBox="0 0 440 851.85"><defs><style>.cls-1{fill:#fff;}.cls-2{stroke:#fff;stroke-linecap:round;stroke-linejoin:round;stroke-width:8px;}</style></defs><path class="cls-1" d="M346.77.08A40.72,40.72,0,0,1,387.5,40.8V771.2a40.72,40.72,0,0,1-40.73,40.72H28.23A40.72,40.72,0,0,1-12.5,771.2V40.8A40.72,40.72,0,0,1,28.23.08H346.77m0-20H28.23A60.79,60.79,0,0,0-32.5,40.8V771.2a60.79,60.79,0,0,0,60.73,60.72H346.77A60.79,60.79,0,0,0,407.5,771.2V40.8a60.79,60.79,0,0,0-60.73-60.72Z" transform="translate(32.5 19.92)"/><rect class="cls-1" x="136.13" y="14.85" width="168.34" height="34.09" rx="12.73"/><path class="cls-1" d="M259.23-.08A7.75,7.75,0,0,1,267,7.66v8.62A7.75,7.75,0,0,1,259.23,24H116.36a7.74,7.74,0,0,1-7.73-7.74V7.66a7.74,7.74,0,0,1,7.73-7.74H259.23m0-10H116.36A17.75,17.75,0,0,0,98.63,7.66v8.62A17.75,17.75,0,0,0,116.36,34H259.23A17.76,17.76,0,0,0,277,16.28V7.66a17.76,17.76,0,0,0-17.74-17.74Z" transform="translate(32.5 19.92)"/><line class="cls-2" x1="284.53" y1="818.85" x2="155.47" y2="818.85"/></svg>