<svg width="76" height="77" viewBox="0 0 76 77" fill="none" xmlns="http://www.w3.org/2000/svg">
<rect x="0.30957" y="9.86804" width="75.6548" height="56.7411" rx="19" fill="white"/>
<path d="M39.6421 32.28C39.6421 34.6 38.8421 36.5333 37.2421 38.08C35.6688 39.6 33.2554 40.36 30.0021 40.36H24.6421V52H21.0021V24.12H30.0021C33.1488 24.12 35.5354 24.88 37.1621 26.4C38.8154 27.92 39.6421 29.88 39.6421 32.28ZM30.0021 37.36C32.0288 37.36 33.5221 36.92 34.4821 36.04C35.4421 35.16 35.9221 33.9067 35.9221 32.28C35.9221 28.84 33.9488 27.12 30.0021 27.12H24.6421V37.36H30.0021ZM47.8062 49.04H57.5662V52H44.1662V24.12H47.8062V49.04Z" fill="black"/>
</svg>
