<svg width="76" height="77" viewBox="0 0 76 77" fill="none" xmlns="http://www.w3.org/2000/svg">
<rect y="9.86804" width="75.6548" height="56.7411" rx="19" fill="white"/>
<path d="M29.9233 52L23.2833 40.6H18.8833V52H15.2433V24.12H24.2433C26.35 24.12 28.1233 24.48 29.5633 25.2C31.03 25.92 32.1233 26.8933 32.8433 28.12C33.5633 29.3467 33.9233 30.7467 33.9233 32.32C33.9233 34.24 33.3633 35.9333 32.2433 37.4C31.15 38.8667 29.4966 39.84 27.2833 40.32L34.2833 52H29.9233ZM18.8833 37.68H24.2433C26.2166 37.68 27.6966 37.2 28.6833 36.24C29.67 35.2533 30.1633 33.9467 30.1633 32.32C30.1633 30.6667 29.67 29.3867 28.6833 28.48C27.7233 27.5733 26.2433 27.12 24.2433 27.12H18.8833V37.68ZM43.1392 24.12V41.76C43.1392 44.24 43.7392 46.08 44.9392 47.28C46.1659 48.48 47.8592 49.08 50.0192 49.08C52.1526 49.08 53.8192 48.48 55.0192 47.28C56.2459 46.08 56.8592 44.24 56.8592 41.76V24.12H60.4992V41.72C60.4992 44.04 60.0326 46 59.0992 47.6C58.1659 49.1733 56.8992 50.3467 55.2992 51.12C53.7259 51.8933 51.9526 52.28 49.9792 52.28C48.0059 52.28 46.2192 51.8933 44.6192 51.12C43.0459 50.3467 41.7926 49.1733 40.8592 47.6C39.9526 46 39.4992 44.04 39.4992 41.72V24.12H43.1392Z" fill="black"/>
</svg>
